/* XPM */
static char *f1e3bb75cf544561c6b082a0a6e3dda9QnKma1pku64oNpio[] = {
/* columns rows colors chars-per-pixel */
"36 36 122 2 ",
"   c #071821",
".  c #0A1D24",
"X  c #0D2126",
"o  c #0F2529",
"O  c #0F292B",
"+  c #112527",
"@  c #112629",
"#  c #142C2B",
"$  c #13302F",
"%  c #1B332D",
"&  c #153331",
"*  c #1A3B35",
"=  c #1B3F39",
"-  c #223D33",
";  c #1C4123",
":  c #1F4037",
">  c #1D443B",
",  c #1F483D",
"<  c #254234",
"1  c #2B4937",
"2  c #22463B",
"3  c #234B3E",
"4  c #2C4E3B",
"5  c #304F39",
"6  c #2E523F",
"7  c #33533C",
"8  c #375A3F",
"9  c #395A3E",
"0  c #234E40",
"q  c #265444",
"w  c #2A5543",
"e  c #2A5946",
"r  c #2B5E4A",
"t  c #305640",
"y  c #345C43",
"u  c #3B5E41",
"i  c #2E644D",
"p  c #356247",
"a  c #3D6243",
"s  c #31664E",
"d  c #39674A",
"f  c #356A4E",
"g  c #3B6A4B",
"h  c #3E704F",
"j  c #306750",
"k  c #316950",
"l  c #3B6F50",
"z  c #3B7353",
"x  c #426644",
"c  c #466C47",
"v  c #486E47",
"b  c #496F48",
"n  c #45744F",
"m  c #4C744A",
"M  c #4E7B4F",
"N  c #527A4D",
"B  c #427652",
"V  c #427A56",
"C  c #417955",
"Z  c #467D56",
"A  c #477F57",
"S  c #447953",
"D  c #487850",
"F  c #4C7B51",
"G  c #4C7C51",
"H  c #4E7C51",
"J  c #5AD510",
"K  c #65FF00",
"L  c #65FF00",
"P  c #64F10E",
"I  c #67F50D",
"U  c #68EE13",
"Y  c #68F013",
"T  c #69F013",
"R  c #6CD92B",
"E  c #6DD331",
"W  c #4A8056",
"Q  c #4B8056",
"!  c #4F8457",
"~  c #498157",
"^  c #4C8559",
"/  c #4D8559",
"(  c #4E8458",
")  c #4E8559",
"_  c #4D8559",
"`  c #548050",
"'  c #568150",
"]  c #568250",
"[  c #548756",
"{  c #578150",
"}  c #5A8652",
"|  c #5B8753",
" . c #588351",
".. c #5C8853",
"X. c #598A56",
"o. c #5F8D55",
"O. c #5D8954",
"+. c #528B5B",
"@. c #528859",
"#. c #5F965D",
"$. c #618F56",
"%. c #618F56",
"&. c #639157",
"*. c #60935B",
"=. c #649358",
"-. c #679659",
";. c #60975D",
":. c #639258",
">. c #62985D",
",. c #63985E",
"<. c #629A5E",
"1. c #68985A",
"2. c #6A9E5E",
"3. c #6C9D5C",
"4. c #6D9F5D",
"5. c #6D9F5E",
"6. c #6B9B5C",
"7. c #6EB44D",
"8. c #6EA05E",
"9. c #6DA05D",
"0. c #76AF67",
"q. c #6EC142",
/* pixels */
"K K K K K K K K K K K K K K  .1 m 0.V 2 * } K K K K K K K K K K L L L L ",
"K K K K K K K K K K K K q.b - & w A k : < } K K K K K K K K K K L L L L ",
"K K K K K K K K K K K -.x - # : e l k g c c  .Y K K K K K K K K L L L L ",
"K K K K K K K K K K K m - & : q i k k V n 6 4 m 7.K K K K K K K L L L L ",
"K K K K K K K K K K 4.a : 3 r k j j k z f w < 1 v 4.K K K K K K L L L L ",
"K K K K K K K K K 4.u 7 e i k k j j k k k n u < < v -.K K K K K L L L L ",
"K K K K K K K K K %.# 6 D z k k j k k k z ^ S w t c m o.K K K K L L L L ",
"K K K K K K K K K $.# 7 M @.z l k j k k j j k z ) ;.x x ..R K K L L L L ",
"K K K K K K K K K %.# . - ] #.z j j j j j j i i r f ,.N % N K K L L L L ",
"K K K K K K K K K %.# * 0 = = r j j j j j i q & . # e 0 # N K K L L L L ",
"K K K K K K K K N < . = e q , & & & & & & & * , 0 0 * O + N K K L L L L ",
"K K K K K K K K 9 # * w i i e 2 > > > > > > 0 e i i 0 & + N K K L L L U ",
"K K K K K K E ] 7 : e z V z i i i q , r B d r j j k D p 2 x %.K L L L L ",
"K K K K K K ..1 0 q q D ) z k j i i > p H A z r w r ( A e 2 x 6.L L L L ",
"K K K K K K N # > w 3 d V z k k j i q 6 a H n 0 = 2 l S s * 4 =.L L L L ",
"K K K K K K N # & 3 a g k k k k j j j q 0 u u 3 > > r j i * 5 =.L L L L ",
"K K K K K K %.7 # * N [ V z k s j k k k i > > e k k S z f * 5 =.L L L L ",
"K K K K K K K 8.5 X X x X.S k f k k k k k k k k k z <.#.h > 5 =.L L L L ",
"K K K K K K N % + # e > # # 8 #.+.j k j k k s s k i : a 9.8 7 =.L L L L ",
"K K K K K K N # * q i r q 3 3 2 : & & & $ & 6 W g & > 3 6 m m u N L L L ",
"K K K K K K N # 2 i k i k i e 0 > > > > > > 3 p 6 > e q 3 8 4 % u L L L ",
"K K K K K &.a = q k k k k k i i e i e i e i e 3 q i j i r : # . 9 L L L ",
"K K K U ] 8 2 e i k k z z z j k j j k k j j i i i k k k i * X   9 L L L ",
"K K K N < # * i i i i S ^ z k j j k j k k k k k f k k i i * .   9 L L L ",
"K K K 8   + = r i e > g ~ z j j k j k k j i z ~ V k k i i : o X a L L L ",
"K K K 9 ; - 4 q q > & 0 i k j i k k j j i w f @.^ k i i 3 6 6 5 N L L L ",
"K K K J K { ] % . $ i i i i r i i k j j r * & q i e i 3 * ] L L L L L L ",
"K K K J K %.K 4.7 & r > o X X o , j j j i i 0 & X X X 6 4.L L L L L L L ",
"K K K K K K K U 7 o $ o O * * $ , i j 0 : q 0 O     . 7 I K K K L L L L ",
"K K K K K K K K O.7 o   X $ $ X $ > > $ # & & X   + 7 O.K K K K L L L L ",
"K K K K K K K K L :.u % X . X   . X X .   . . X % 9 :.K K K K K L L L L ",
"K K K K K K K K L L 8.c : o                 + < v 8.K K K K K K L L L L ",
"K K K K K K K K K K L 6.x %                 % x 1.L L L L L L L L L L L ",
"K K K K K K K K K K L %.a %                 % a &.L L L L L L L L L L L ",
"K K K K K K K K K K %.7 +                     + 7 &.L L L L L L L L L L ",
"K K K K K K K K K %.#                             # %.L L L L L L L L L "
};
