/* XPM */
static char *_48693662c4e423cb1633c8c908cec267KYQDgR2h2mNBHuD[] = {
/* columns rows colors chars-per-pixel */
"36 36 177 2 ",
"   c black",
".  c #060E00",
"X  c #0E0D0C",
"o  c #0B1C00",
"O  c #111709",
"+  c #18120B",
"@  c #1B1816",
"#  c #261D14",
"$  c #112B00",
"%  c #1B3107",
"&  c #272510",
"*  c #272018",
"=  c #29271B",
"-  c #3D2E1F",
";  c #2F3E16",
":  c #2A2A29",
">  c #2A2623",
",  c #2D3428",
"<  c #403225",
"1  c #543E28",
"2  c #4A3E31",
"3  c #1C4700",
"4  c #205100",
"5  c #3F5315",
"6  c #345312",
"7  c #276300",
"8  c #2A6502",
"9  c #2B6C00",
"0  c #2E6709",
"q  c #337E01",
"w  c #3C7709",
"e  c #3E7A0D",
"r  c #3F7F15",
"t  c #314623",
"y  c #45691A",
"u  c #496D14",
"i  c #56631F",
"p  c #544426",
"a  c #4D4137",
"s  c #5B4836",
"d  c #63582A",
"f  c #74573A",
"g  c #546C28",
"h  c #547126",
"j  c #476633",
"k  c #527C37",
"l  c #7C6538",
"z  c #655443",
"x  c #746349",
"c  c #747144",
"v  c #61675E",
"b  c #7F6A57",
"n  c #646464",
"m  c #7A6D61",
"M  c #737F6A",
"N  c #7E7B77",
"B  c #8A6A4B",
"V  c #80744E",
"C  c #8E7559",
"Z  c #9F7850",
"A  c #93785E",
"S  c #348300",
"D  c #3F9602",
"F  c #3E9C00",
"G  c #3FA000",
"H  c #438F0A",
"J  c #459108",
"K  c #409805",
"L  c #469613",
"P  c #41A300",
"I  c #48A207",
"U  c #46B100",
"Y  c #48B700",
"T  c #4ABB00",
"R  c #4EC400",
"E  c #51CB01",
"W  c #55D600",
"Q  c #57DC00",
"!  c #5BE400",
"~  c #5DEB00",
"^  c #5FF100",
"/  c #61F400",
"(  c #65FF00",
")  c #62804E",
"_  c #DF833F",
"`  c #E1823C",
"'  c #FAEE3E",
"]  c #FBF236",
"[  c #FBF13A",
"{  c #AB8050",
"}  c #B58555",
"|  c #94816F",
" . c #958576",
".. c #A98662",
"X. c #A38A72",
"o. c #AB937D",
"O. c #AC9073",
"+. c #B19376",
"@. c #DB9355",
"#. c #E38846",
"$. c #E4894A",
"%. c #E28644",
"&. c #E1985C",
"*. c #E39350",
"=. c #DFAB5C",
"-. c #EBBB5B",
";. c #D09D69",
":. c #E39B63",
">. c #DFA872",
",. c #EAAC7B",
"<. c #E4AB79",
"1. c #E7B06D",
"2. c #EDCF4B",
"3. c #F3DA56",
"4. c #FAEC44",
"5. c #FBF34A",
"6. c #F6E15A",
"7. c #FCF456",
"8. c #F5DB6E",
"9. c #F3D770",
"0. c #F8E86D",
"q. c #8B9684",
"w. c #9A9A97",
"e. c #908C88",
"r. c #A19B95",
"t. c #B8B5B1",
"y. c #D5AE89",
"u. c #DBB38B",
"i. c #C9A786",
"p. c #E3B485",
"a. c #EAB487",
"s. c #E4BA90",
"d. c #E2BC98",
"f. c #D3BCA5",
"g. c #D0BCA8",
"h. c #F0CB8B",
"j. c #EBC299",
"k. c #F0CB9B",
"l. c #F1C09F",
"z. c #F1D28E",
"x. c #FDF784",
"c. c #FCF58C",
"v. c #F8E89B",
"b. c #FDF89A",
"n. c #D5C6B7",
"m. c #E7C9AB",
"M. c #F2CAAC",
"N. c #F2C6A6",
"B. c #E4CDB7",
"V. c #ECCFB1",
"C. c #ECD2BA",
"Z. c #F2D0B2",
"A. c #F2D5BB",
"S. c #F6DFB7",
"D. c #F9ECA9",
"F. c #C6C6C6",
"G. c #D5D5D5",
"H. c #F3DBC5",
"J. c #F3DDC8",
"K. c #F6E1C7",
"L. c #F4E1CD",
"P. c #FEFBC2",
"I. c #F4E4D3",
"U. c #F8E6D5",
"Y. c #F9E9DB",
"T. c #F8E8DB",
"R. c #FEFDDE",
"E. c #EEE7E1",
"W. c gray89",
"Q. c #FBEEE4",
"!. c #FBF3EB",
"~. c #FFFDEB",
"^. c #FDF7E4",
"/. c #F5F4F3",
"(. c #FDF7F1",
"). c #FDF9F6",
"_. c #FFFFFE",
/* pixels */
"( ( ( ( ( ( ( ( ( ( ( ( ( ( ( ( ( ( ( ( ( ( ( ( ( ( ( ( ( ( ( ( ( ( ( ( ",
"( ( ( ( ( ( ( ( ( ( ( ( ( ( ( ( ( ( ( ( ( ( ( ( ( ( ( ( ( ( ( ( ( ( ( ( ",
"( ( ( ( ( ( ( ( ( ( ( ( ( ( ( ( ( ( ( ( ( ( ( ( ( ( ( ( ( ( ( ( ( ( ( ( ",
"( ( ( ( ( ( ( ( ( ( ( ( ( / / / ^ ^ ^ ^ ^ ^ ^ ~ ^ ( ( ( ( ( ( ( ( ( ( ( ",
"( ( ( ( ( ( ( ( ( ( ( ( / R S S q q q q q S q q U ~ ( ( ( ( ( ( ( ( ( ( ",
"( ( ( ( ( ( ( ( ( ( ( ( / S o . . . . . . . . . 9 W ( ( ( ( ( ( ( ( ( ( ",
"( ( ( ( ( ( ( ( ( ( ~ R K ) n n n n n n n n n n k L Y ! ( ( ( ( ( ( ( ( ",
"( ( ( ( ( ( ( ( ( ( Q S % ) F.G.G.G.G.G.G.G.G.G.q.t 7 R ( ( ( ( ( ( ( ( ",
"( ( ( ( ( ( ( ( ~ E I y a r.)._._._._._._._._._.t.n j L T Y T Q ( ( ( ( ",
"( ( ( ( ( ( ( ( E q 6 c +.n.)._._._._._._._._._.W.F.q.j 3 3 4 G / ( ( ( ",
"( ( ( ( ~ W W W I 6 2 X.Z.J.!.^.^.R.R.R.R.R.~._._._.F.n : > = r E ! ^ ( ",
"( ( ( / U 9 7 7 y c X.g.U.J.H.D.c.x.x.x.x.c.P.)._._.W.t.w. .A g 8 G ~ ( ",
"( ( / ! w O X X a +.Z.U.).K.k.8.4.] ] [ 5.5.b.~._._._._.!.J.d.V @ 8 E ~ ",
"( ~ U q h x m N w.n.L.K.H.v.8.6.' ] ] 5.0.b.b.b.P.~._._.).Y.H.t.e.) r q ",
"( W 9 O x y.B.T./.).!.H.k.8.4.[ ] ] ] 7.D.~.b.5.c.R._._._._.)././.w., . ",
"( W 7 X m B.Y.)._._.!.N.:.-.2.3.3.6.6.8.D.U.v.6.v.^._._._._._._._.w.:   ",
"( W 8 X N E.(._._._.Q.a._ *.=.1.h.h.h.h.k.M.k.z.S.^._._._._._._._.w.:   ",
"Y I y a r./._._._._.Q.l.:.&.@.:.<.,.,.,.,.,.a.a.A.!._._._._._.(.^.e.:   ",
"3 6 c +.n.)._._._._.(.Y.A.,._ ` %.#.%.#.#.$.;.>.M.Q._._._._._.T.A.| =   ",
"  # C j.J.)._._._._._._.(.N.*.$.$.$.$.$.$.$.:.>.V.!._._._.).Q.B.i.b ; $ ",
"  # B p.A.)._._._._._._._.I.M.M.M.N.M.M.N.M.A.H.T.)._._.).T.C.o.z g H F ",
". & l ;.m.!.)._._._._._._._._._._._._._._._._._._._._._.Q.C.y.x + 9 W ( ",
"S u g f O.m.A.J.Y.(._._._._._._._._._._._._._._._._.!.Y.m.r.x h w U ~ ( ",
"^ R 8 + f ;.a.d.A.Q._._._._._._._._._._._._._._._._.Q.A.i.z O q ! / ( ( ",
"( ! G 8 g l B C o.n.A.L.Y.!._._._._._._._._.^.Y.I.H.n.O.c g 9 U ( ( ( ( ",
"( / ~ E w & # # s ..p.j.Z.U.)._._._._._._._.U.M.j.p...s t J W ~ ( ( ( ( ",
"( ( ( / P 4 3 3 5 l Z ..+.f.L.L.I.I.I.I.I.J.f.O...Z l 5 7 Y ( ( ( ( ( ( ",
"( ( ( / Q T Y Y J 5 - < a C u.s.s.s.s.s.d.u.A 2 - - 5 J R ! ( ( ( ( ( ( ",
"( ( ( ( ( ( ( ( R 7 $ $ % d { } } } } } } { d % $ $ 7 R ( ( ( ( ( ( ( ( ",
"( ( ( ( ( ( ( ( ! Y F F D u p 1 1 1 1 1 1 p u K F K Y ! ( ( ( ( ( ( ( ( ",
"( ( ( ( ( ( ( ( ( ( ( ( ^ S o . . . . . . o S / ( ( ( ( ( ( ( ( ( ( ( ( ",
"( ( ( ( ( ( ( ( ( ( ( ( / R S S q S q S S S R / ( ( ( ( ( ( ( ( ( ( ( ( ",
"( ( ( ( ( ( ( ( ( ( ( ( ( ( ^ ^ ^ ^ ^ / ^ ^ ( ( ( ( ( ( ( ( ( ( ( ( ( ( ",
"( ( ( ( ( ( ( ( ( ( ( ( ( ( ( ( ( ( ( ( ( ( ( ( ( ( ( ( ( ( ( ( ( ( ( ( ",
"( ( ( ( ( ( ( ( ( ( ( ( ( ( ( ( ( ( ( ( ( ( ( ( ( ( ( ( ( ( ( ( ( ( ( ( ",
"( ( ( ( ( ( ( ( ( ( ( ( ( ( ( ( ( ( ( ( ( ( ( ( ( ( ( ( ( ( ( ( ( ( ( ( "
};
