/* XPM */
static char *d56de452ff3542a7d96f39e13496c7caBEH9MReimUdfs5rL[] = {
/* columns rows colors chars-per-pixel */
"36 36 169 2 ",
"   c black",
".  c #060E00",
"X  c #070708",
"o  c #0A0B0B",
"O  c #0C1407",
"+  c #0B1C00",
"@  c #0E1609",
"#  c #161516",
"$  c #171618",
"%  c #1A1C1E",
"&  c #112B00",
"*  c #153600",
"=  c #173008",
"-  c #19320C",
";  c #1A2015",
":  c #223817",
">  c #22252A",
",  c #242826",
"<  c #2B3C20",
"1  c #2A2D34",
"2  c #2C3730",
"3  c #38363A",
"4  c #1C4700",
"5  c #204906",
"6  c #234C0A",
"7  c #205100",
"8  c #30551E",
"9  c #276300",
"0  c #2A6303",
"q  c #2B6C00",
"w  c #2E600D",
"e  c #327D02",
"r  c #35740B",
"t  c #3B7E0E",
"y  c #36691A",
"u  c #376D12",
"i  c #3A741A",
"p  c #3A7215",
"a  c #2A4123",
"s  c #35462A",
"d  c #375B20",
"f  c #3C5929",
"g  c #3A5F22",
"h  c #3D5131",
"j  c #3F6D2A",
"k  c #3D6B27",
"l  c #415632",
"z  c #406B2E",
"x  c #417B23",
"c  c #467831",
"v  c #48713C",
"b  c #373D40",
"n  c #383D46",
"m  c #423F44",
"M  c #394442",
"N  c #3D4647",
"B  c #414240",
"V  c #44454B",
"C  c #4F4E4E",
"Z  c #46494E",
"A  c #4A5749",
"S  c #4E4C52",
"D  c #464E52",
"F  c #514D52",
"G  c #4A5055",
"H  c #4C5957",
"J  c #4D565B",
"K  c #4E595D",
"L  c #545257",
"P  c #5D5D5D",
"I  c #555555",
"U  c #466242",
"Y  c #55695D",
"T  c #57725B",
"R  c #5B785E",
"E  c #4F5561",
"W  c #545D66",
"Q  c #595D64",
"!  c #576166",
"~  c #596167",
"^  c #5A656B",
"/  c #5D716A",
"(  c #5F6A70",
")  c #606167",
"_  c #647C6F",
"`  c #696A71",
"'  c #626D74",
"]  c #706C74",
"[  c #647077",
"{  c #6E727A",
"}  c #6B7A7D",
"|  c #73747B",
" . c #358700",
".. c #388E00",
"X. c #3D8C0B",
"o. c #3C9601",
"O. c #3E9B02",
"+. c #3FA000",
"@. c #419010",
"#. c #40A200",
"$. c #46A30C",
"%. c #46B101",
"&. c #49B404",
"*. c #4ABA00",
"=. c #4DC200",
"-. c #51CB00",
";. c #54D500",
":. c #57DC00",
">. c #5AE200",
",. c #5DEC00",
"<. c #5FF100",
"1. c #60F400",
"2. c #65FF00",
"3. c #7D7780",
"4. c #757D85",
"5. c #7D7B83",
"6. c #727C8D",
"7. c #6E8080",
"8. c #75818C",
"9. c #7A878F",
"0. c #7A8495",
"q. c #7C8B92",
"w. c #7C869A",
"e. c #7F899D",
"r. c #85828B",
"t. c #838790",
"y. c #8A8B95",
"u. c #84939B",
"i. c #8D939C",
"p. c #848FA3",
"a. c #8D97A0",
"s. c #8C9BA4",
"d. c #8C9AAB",
"f. c #8A96AA",
"g. c #969DA9",
"h. c #9497A4",
"j. c #939EB5",
"k. c #9D9FB0",
"l. c #94A3AD",
"z. c #94A1B7",
"x. c #98A7B4",
"c. c #97A8B2",
"v. c #9AA9B4",
"b. c #9DAEBA",
"n. c #96A3B9",
"m. c #9EB0BB",
"M. c #A1A6B8",
"N. c #A4AABD",
"B. c #A1B3BF",
"V. c #9DACC0",
"C. c #A0AFC5",
"Z. c #A4B5C4",
"A. c #A7B6CC",
"S. c #A7B8C9",
"D. c #ABBCCE",
"F. c #AAB4C8",
"G. c #AEBED1",
"H. c #A8B6D1",
"J. c #AFC0D4",
"K. c #B0C1D5",
"L. c #B3C4D9",
"P. c #B9C5DF",
"I. c #B6C6E0",
"U. c #BBCBE5",
"Y. c #C0CEEB",
"T. c #C1D1ED",
"R. c #C4D4F2",
"E. c #C8D7F7",
"W. c #C8D8F8",
/* pixels */
"2.2.2.2.2.2.O.&               9 ;.2.2.2.2.2.2.2.2.2.2.2.2.2.2.2.2.2.2.2.",
"2.2.2.2.,.;.@.a > > > > > > > u *.>.<.2.2.2.2.2.2.2.2.2.2.2.2.2.2.2.2.2.",
"2.2.2.1.%.q v 7.w.w.w.w.e.w.w./ y ..;.2.2.2.2.2.2.2.2.2.2.2.2.2.2.2.2.2.",
"2.2.1.>.e @ W H.W.W.W.W.W.W.W.e.1 6 &.1.2.2.2.2.2.2.2.2.2.2.2.2.2.2.2.2.",
"2.,.%.e z H 8.Z.L.L.L.L.L.L.L.z.6.T j O.-.2.2.2.2.2.2.2.2.2.2.2.2.2.2.2.",
"2.;.q @ H s.x.b.m.m.m.m.m.m.m.D.U.d.M * +.2.2.2.2.2.2.2.2.2.2.2.2.2.2.2.",
"2.;.9 o K l.Z.S.n.8.( ( ( q.c.J.R.j.n & O.2.2.2.2.2.2.2.2.2.2.2.2.2.2.2.",
"2.;.9 o J l.D.U.z.J % ; > ^ l.J.R.j.n & O.2.2.2.2.2.2.2.2.2.2.2.2.2.2.2.",
"2.;.9 o G i.D.T.j.n     o J l.G.R.j.n & O.2.2.2.2.2.2.2.2.2.2.2.2.2.2.2.",
"2.;.9 X V r.N.Y.j.n     o H l.J.R.j.n & O.2.2.2.2.2.2.2.2.2.2.2.2.2.2.2.",
"2.;.9 X m 3.k.P.n.E > > 1 ( l.J.R.j.n & O.2.2.2.2.2.2.2.2.2.2.2.2.2.2.2.",
"2.;.9 X V | h.F.C.f.w.w.w.s.c.J.R.j.n & O.2.2.2.2.2.2.2.2.2.2.2.2.2.2.2.",
"2.;.q @ B | y.l.F.U.E.E.E.K.b.J.U.n.N - @.1.2.2.2.2.2.2.2.2.2.2.2.2.2.2.",
"2.,.%.e f l ) r.g.M.F.G.L.F.b.Z.J.V.w./ c  .*.2.2.2.2.2.2.2.2.2.2.2.2.2.",
"2.2.<.>.r O 3 ] r.r.y.g.B.m.b.b.b.A.I.Z.J +  .1.2.2.2.2.2.2.2.2.2.2.2.2.",
"2.2.2.<.%.q 8 A C F L Q ) ( ( 4.i.x.G.H.0.K c o.=.<.2.2.2.2.2.2.2.2.2.2.",
"2.2.2.2.,.;.X.: # # # % ; % % Z | i.v.F.A.V./ - e :.2.2.2.2.2.2.2.2.2.2.",
"2.2.2.2.2.2.&.9 4 4 4 4 4 4 4 s I | i.m.J.P.w.N j $.-.<.2.2.2.2.2.2.2.2.",
"2.2.2.2.2.2.>.=.*.&.&.&.*.*.*.t < Z q.m.Z.S.N.j._ d e -.2.2.2.2.2.2.2.2.",
"2.2.2.2.2.2.2.2.2.2.2.2.2.,.;.X.: b [ u.g.c.G.T.p.N 8 @.:.,.2.2.2.2.2.2.",
"2.2.2.2.2.2.2.2.2.2.2.2.1.&.q j Y ! D G { a.v.D.V.f._ j e =.2.2.2.2.2.2.",
"2.2.2.2.2.2.2.2.2.2.2.2.1. .+ B q.} 2 ; S 5.i.c.G.U.n.N - O.<.<.2.2.2.2.",
"2.2.2.2.2.2.2.2.2.2.2.2.2.*. .i U U i u f V ` i.x.G.V.w./ c  .=.1.2.2.2.",
"2.2.2.2.2.2.2.2.2.2.2.2.2.1.1.@.- 4 &.-.0 o V 5.i.x.S.I.C.E +  .1.2.2.2.",
"2.2.2.2.2.2.2.2.2.2.2.2.2.2.2.=.e ..;.>.#.0 f C { s.Z.J.S.0.J c @.=.<.2.",
"2.2.2.2.2.2.2.2.2.2.2.2.2.2.2.<.:.>.1.1.>.-.r ; G u.m.Z.Z.S.V./ - e :.2.",
"2.2.2.2.2.2.2.2.2.2.2.2.2.2.2.2.2.2.2.1.;.%.i 2 ~ a.c.l.l.j.d.T 6 ..:.2.",
"2.2.2.2.2.2.2.2.2.2.2.2.2.2.2.2.2.2.2.>...5 U } u.x.l.i.5.W N x &.;.1.2.",
"2.2.2.2.2.2.2.2.2.2.2.2.2.2.2.2.2.1.:.&.w % ) l.b.c.i.5.P s * o.<.2.2.2.",
"2.2.2.2.2.2.2.2.2.2.2.2.2.2.2.2.2.;...w l I 8.v.l.i.| S s p O.-.2.2.2.2.",
"2.2.2.2.2.2.2.2.2.2.2.2.2.2.2.2.2.*.7 ; C | i.l.i.r.P , * #.2.2.2.2.2.2.",
"2.2.2.2.2.2.2.2.2.2.2.2.2.2.2.2.2.:.#.r f V ` i.| S h u o.-.2.2.2.2.2.2.",
"2.2.2.2.2.2.2.2.2.2.2.2.2.2.2.2.2.1.1.-.0 o V 5.L % 5 %.1.2.2.2.2.2.2.2.",
"2.2.2.2.2.2.2.2.2.2.2.2.2.2.2.2.2.2.2.,.#.w f C l w ..;.2.2.2.2.2.2.2.2.",
"2.2.2.2.2.2.2.2.2.2.2.2.2.2.2.2.2.2.2.1.>.-.r ; w &.:.1.2.2.2.2.2.2.2.2.",
"2.2.2.2.2.2.2.2.2.2.2.2.2.2.2.2.2.2.2.2.2.1.e . 0 ;.2.2.2.2.2.2.2.2.2.2."
};
