/* XPM */
static char *_899382f303d49b0aed30e510f42c8bbncUnwm53nTfRiNfr[] = {
/* columns rows colors chars-per-pixel */
"36 36 153 2 ",
"   c #65FF00",
".  c #4BBF09",
"X  c #215818",
"o  c #071821",
"O  c #2C7214",
"+  c #55D905",
"@  c #55D806",
"#  c #51CF07",
"$  c #328212",
"%  c #1F5219",
"&  c #1D4F19",
"*  c #13351D",
"=  c #081B21",
"-  c #225B17",
";  c #42A80C",
":  c #4DC508",
">  c #5EEF02",
",  c #54D506",
"<  c #4EC508",
"1  c #4ABC0A",
"2  c #2A6F15",
"3  c #0B2220",
"4  c #102E1E",
"5  c #1B481A",
"6  c #1E5219",
"7  c #4BBE0B",
"8  c #3A841E",
"9  c #294931",
"0  c #274234",
"q  c #22561C",
"w  c #427439",
"e  c #629256",
"r  c #669659",
"t  c #5CE903",
"y  c #43A114",
"u  c #326628",
"i  c #2C4937",
"p  c #568150",
"a  c #81B969",
"s  c #86C06C",
"d  c #32652B",
"f  c #528347",
"g  c #68985A",
"h  c #76AB63",
"j  c #84BE6B",
"k  c #40A50D",
"l  c #173E1C",
"z  c #2A4736",
"x  c #639157",
"c  c #173F1B",
"v  c #73A661",
"b  c #4C734A",
"n  c #71A45F",
"m  c #38593E",
"M  c #0A1B23",
"N  c #223437",
"B  c #3A4D4A",
"V  c #283A3C",
"C  c #102128",
"Z  c #71A460",
"A  c #586C62",
"S  c #A1B79C",
"D  c #6A7F71",
"F  c #304B3B",
"G  c #789675",
"H  c #C0E1AF",
"J  c #7E987C",
"K  c #273B3A",
"L  c #69995C",
"P  c #81B26F",
"I  c #99CB82",
"U  c #62875E",
"Y  c #203632",
"T  c #557F4F",
"R  c #1C342D",
"E  c #1C342E",
"W  c #153B1C",
"Q  c #0C1F24",
"!  c #1A322C",
"~  c #416543",
"^  c #172D2A",
"/  c #2A5D24",
"(  c #4A7B40",
")  c #7AB065",
"_  c #6C9D5C",
"`  c #30473D",
"'  c #3A4E48",
"]  c #3D504D",
"[  c #2A5D23",
"{  c #47AF10",
"}  c #367523",
"|  c #618F56",
" . c #37573D",
".. c #81A676",
"X. c #9FB997",
"o. c #AAC0A4",
"O. c #47AF0F",
"+. c #4E754B",
"@. c #31503A",
"#. c #87C16D",
"$. c #91C778",
"%. c #9BCD83",
"&. c #B7DEA2",
"*. c #D5F1C3",
"=. c #E0F8CF",
"-. c #091A22",
";. c #254033",
":. c #3F6342",
">. c #5C8853",
",. c #6FA25E",
"<. c #7DB467",
"1. c #8AC270",
"2. c #A8D591",
"3. c #C6E8B2",
"4. c #D2EFC0",
"5. c #DCF6CB",
"6. c #4BB214",
"7. c #447E32",
"8. c #4D6B51",
"9. c #5F8A57",
"0. c #366430",
"q. c #74956E",
"w. c #778F78",
"e. c #3D5746",
"r. c #2B3D3E",
"t. c #8CA18B",
"y. c #213B31",
"u. c #80A676",
"i. c #9EB997",
"p. c #AAC0A3",
"a. c #102426",
"s. c #1E362F",
"d. c #2F473D",
"f. c #394E48",
"g. c #3D504C",
"h. c #59E204",
"j. c #3A950F",
"k. c #61F501",
"l. c #57DC05",
"z. c #245121",
"x. c #315138",
"c. c #599343",
"v. c #78E038",
"b. c #84FD34",
"n. c #5DC422",
"m. c #86C267",
"M. c #B3D6A0",
"N. c #BDF09D",
"B. c #C1FA9B",
"V. c #7AFE23",
"C. c #B0FB7F",
"Z. c #B0FB7E",
"A. c #79FE22",
/* pixels */
"                . X o o o o o O +     @ O o o o o o X .                 ",
"                # $ % % & * = - ; : : ; - = * & % % $ #                 ",
"                > , < < 1 2 3 4 5 6 6 5 4 3 2 1 < < , >                 ",
"                > , : : 7 8 9 0 0 0 0 0 0 9 8 7 : : , >                 ",
"                # $ 6 6 q w e r r r r r r e w q 6 6 $ #                 ",
"            t # y u 0 0 i p a s s s s s s a p i 0 0 u y # t             ",
"            1 2 d f r r g h j s s s s s s j h g r r f d 2 1             ",
"            k l z x s s s s s s s s s s s s s s s s x z c k             ",
"            k l z x s s s s s s s s s s s s s s s s x z c k             ",
"            k l z x a v r r r r r r r r r r r r v a x z c k             ",
"            k l z x h b 0 0 0 0 0 0 0 0 0 0 0 0 b h x z c k             ",
"            k l z x n m M N B V C o o C V B N M m Z x z c k             ",
"            k l z x n m C A S D N o o N D S A C m Z x z c k             ",
"            k l z x h b F G H J K o o K J H G F b h x z c k             ",
"            k l z x a v L P I U Y o o Y U I P L v a x z c k             ",
": : : : : : $ * z x s s s s s T R o o E T s s s s s x z * $ : : : : : : ",
"6 6 6 6 6 6 W 3 z x s s s s s T R o o E T s s s s s x z 3 W 6 6 6 6 6 6 ",
"o Q ! 0 0 0 0 0 m T r r r r r ~ ^ o o ^ ~ r r r r r T m 0 0 0 0 0 ! Q o ",
"o ^ ~ r r r r r T m 0 0 0 0 0 ! Q o o Q ! 0 0 0 0 0 m T r r r r r ~ ^ o ",
"% / ( g h j ) _ T m 0 0 0 0 0 ` ' ] ] ' ` 0 0 0 0 0 m T _ ) j h g ( [ % ",
"< { } i p a |  .m T r r r r r ..X.o.o.X...r r r r r T m  .| a p i } O.< ",
"  @ O Q  .| +.@.~ _ s s #.$.%.&.*.=.=.*.&.%.$.#.s s _ ~ @.+.|  .Q O +   ",
"  @ O -.^ ;.:.>.,.<.s s 1.2.3.4.5.=.=.5.4.3.2.1.s s <.,.>.:.;.^ -.O +   ",
": 6.7.] ] ] 8.9.,.<.s s 1.2.3.4.5.=.=.5.4.3.2.1.s s <.,.9.8.] ] ] 7.6.: ",
"6 0.q.o.o.o.w.e.~ _ s s #.$.%.&.*.=.=.*.&.%.$.#.s s _ ~ e.w.o.o.o.q.0.6 ",
"o r.t.=.=.=.t.r.y.b r r r r r u.i.p.p.i.u.r r r r r b y.r.t.=.=.=.t.r.o ",
"o r.t.=.=.=.t.r.a.s.0 0 0 0 0 d.f.g.g.f.d.0 0 0 0 0 s.a.r.t.=.=.=.t.r.o ",
"% 0.q.p.p.p.D N a.s.0 0 0 0 0 0 0 0 0 0 0 0 0 0 0 0 s.a.N D p.p.p.q.0.% ",
"< 6.7.g.g.g.V C y.b r r r r r r r r r r r r r r r r b y.C V g.g.g.7.6.< ",
"  h.j.% % % W 3 z x s s s s s ) _ r r _ ) s s s s s x z 3 W % % % j.h.  ",
"  k.l.< < < $ * z x s s s s s |  .0 0  .| s s s s s x z * $ < < < l.k.  ",
"            1 2 d f r r r r r ( [ % % / ( r r r r r f d 2 1             ",
"            t # y u 0 0 0 0 0 } O.< < { } 0 0 0 0 0 u y # t             ",
"                # $ z.x.] ] ] c.v.b.b.v.c.] ] ] x.z.$ #                 ",
"                > , n.m.o.o.o.M.N.B.B.N.M.o.o.o.m.n., >                 ",
"                    V.C.=.=.=.=.=.=.=.=.=.=.=.=.Z.A.                    "
};
